<svg width="1920" height="1080" viewBox="0 0 1920 1080" fill="none" xmlns="http://www.w3.org/2000/svg">
<g clip-path="url(#clip0_202_187)">
<rect width="1920" height="1080" fill="#F3F3F7"/>
<g filter="url(#filter0_f_202_187)">
<path d="M428.5 533C214.007 483.955 13.4369 1084 13.4369 1084H0V-2H1917L1568 280.5C1568 280.5 1006.62 714.658 811 723C615.383 731.342 619.419 576.655 428.5 533Z" fill="url(#paint0_linear_202_187)"/>
</g>
<path d="M422.191 543.979C192.258 503.244 -0.00489387 1077.16 -0.00489387 1077.16L-24.5484 0.28931L2015.36 -70.4756L1632.2 225.998C1632.2 225.998 1048.5 730.186 840.631 745.682C632.759 761.179 626.854 580.237 422.191 543.979Z" fill="url(#paint1_linear_202_187)"/>
</g>
<defs>
<filter id="filter0_f_202_187" x="-200" y="-202" width="2317" height="1486" filterUnits="userSpaceOnUse" color-interpolation-filters="sRGB">
<feFlood flood-opacity="0" result="BackgroundImageFix"/>
<feBlend mode="normal" in="SourceGraphic" in2="BackgroundImageFix" result="shape"/>
<feGaussianBlur stdDeviation="100" result="effect1_foregroundBlur_202_187"/>
</filter>
<linearGradient id="paint0_linear_202_187" x1="531.5" y1="-51.0001" x2="1652" y2="729.5" gradientUnits="userSpaceOnUse">
<stop stop-color="#F38B40"/>
<stop offset="0.0001" stop-color="#F34040"/>
<stop offset="1" stop-color="#FFB5B5"/>
</linearGradient>
<linearGradient id="paint1_linear_202_187" x1="533.5" y1="-250.046" x2="930.381" y2="1569.83" gradientUnits="userSpaceOnUse">
<stop stop-color="#FA7C54"/>
<stop offset="1" stop-color="#EC2C5A"/>
</linearGradient>
<clipPath id="clip0_202_187">
<rect width="1920" height="1080" fill="white"/>
</clipPath>
</defs>
</svg>
